<mxfile host="65bd71144e">
    <diagram id="C5RBs43oDa-KdzZeNtuy" name="Page-1">
        <mxGraphModel dx="298" dy="605" grid="1" gridSize="10" guides="1" tooltips="1" connect="1" arrows="1" fold="1" page="1" pageScale="1" pageWidth="827" pageHeight="1169" math="0" shadow="0">
            <root>
                <mxCell id="WIyWlLk6GJQsqaUBKTNV-0"/>
                <mxCell id="WIyWlLk6GJQsqaUBKTNV-1" parent="WIyWlLk6GJQsqaUBKTNV-0"/>
                <mxCell id="quJpcEcycrzPPs2imelZ-5" style="edgeStyle=orthogonalEdgeStyle;rounded=0;orthogonalLoop=1;jettySize=auto;html=1;entryX=0.5;entryY=1;entryDx=0;entryDy=0;" parent="WIyWlLk6GJQsqaUBKTNV-1" source="quJpcEcycrzPPs2imelZ-0" target="quJpcEcycrzPPs2imelZ-2" edge="1">
                    <mxGeometry relative="1" as="geometry"/>
                </mxCell>
                <mxCell id="quJpcEcycrzPPs2imelZ-6" style="edgeStyle=orthogonalEdgeStyle;rounded=0;orthogonalLoop=1;jettySize=auto;html=1;entryX=0.5;entryY=1;entryDx=0;entryDy=0;" parent="WIyWlLk6GJQsqaUBKTNV-1" source="quJpcEcycrzPPs2imelZ-0" target="quJpcEcycrzPPs2imelZ-1" edge="1">
                    <mxGeometry relative="1" as="geometry"/>
                </mxCell>
                <mxCell id="quJpcEcycrzPPs2imelZ-7" style="edgeStyle=orthogonalEdgeStyle;rounded=0;orthogonalLoop=1;jettySize=auto;html=1;entryX=0.5;entryY=1;entryDx=0;entryDy=0;" parent="WIyWlLk6GJQsqaUBKTNV-1" source="quJpcEcycrzPPs2imelZ-0" target="quJpcEcycrzPPs2imelZ-3" edge="1">
                    <mxGeometry relative="1" as="geometry">
                        <Array as="points">
                            <mxPoint x="413" y="110"/>
                            <mxPoint x="494" y="110"/>
                        </Array>
                    </mxGeometry>
                </mxCell>
                <mxCell id="quJpcEcycrzPPs2imelZ-9" style="edgeStyle=orthogonalEdgeStyle;rounded=0;orthogonalLoop=1;jettySize=auto;html=1;entryX=0.5;entryY=1;entryDx=0;entryDy=0;" parent="WIyWlLk6GJQsqaUBKTNV-1" source="quJpcEcycrzPPs2imelZ-0" target="quJpcEcycrzPPs2imelZ-8" edge="1">
                    <mxGeometry relative="1" as="geometry"/>
                </mxCell>
                <mxCell id="quJpcEcycrzPPs2imelZ-87" style="edgeStyle=orthogonalEdgeStyle;rounded=0;orthogonalLoop=1;jettySize=auto;html=1;entryX=0;entryY=0.5;entryDx=0;entryDy=0;" parent="WIyWlLk6GJQsqaUBKTNV-1" source="quJpcEcycrzPPs2imelZ-0" target="quJpcEcycrzPPs2imelZ-86" edge="1">
                    <mxGeometry relative="1" as="geometry">
                        <Array as="points">
                            <mxPoint x="413" y="110"/>
                        </Array>
                    </mxGeometry>
                </mxCell>
                <mxCell id="quJpcEcycrzPPs2imelZ-0" value="Funcionarios" style="rhombus;whiteSpace=wrap;html=1;fillColor=#fff2cc;strokeColor=#d6b656;fontColor=#000000;" parent="WIyWlLk6GJQsqaUBKTNV-1" vertex="1">
                    <mxGeometry x="353" y="130" width="120" height="60" as="geometry"/>
                </mxCell>
                <mxCell id="quJpcEcycrzPPs2imelZ-1" value="idFunc" style="ellipse;whiteSpace=wrap;html=1;fillColor=#d5e8d4;strokeColor=#82b366;fontColor=#000000;" parent="WIyWlLk6GJQsqaUBKTNV-1" vertex="1">
                    <mxGeometry x="299" y="50" width="70" height="40" as="geometry"/>
                </mxCell>
                <mxCell id="quJpcEcycrzPPs2imelZ-2" value="Senha" style="ellipse;whiteSpace=wrap;html=1;" parent="WIyWlLk6GJQsqaUBKTNV-1" vertex="1">
                    <mxGeometry x="418" y="10" width="70" height="40" as="geometry"/>
                </mxCell>
                <mxCell id="quJpcEcycrzPPs2imelZ-3" value="CPF" style="ellipse;whiteSpace=wrap;html=1;" parent="WIyWlLk6GJQsqaUBKTNV-1" vertex="1">
                    <mxGeometry x="459" y="50" width="70" height="40" as="geometry"/>
                </mxCell>
                <mxCell id="quJpcEcycrzPPs2imelZ-8" value="Nome" style="ellipse;whiteSpace=wrap;html=1;" parent="WIyWlLk6GJQsqaUBKTNV-1" vertex="1">
                    <mxGeometry x="343" y="10" width="70" height="40" as="geometry"/>
                </mxCell>
                <mxCell id="quJpcEcycrzPPs2imelZ-13" style="edgeStyle=orthogonalEdgeStyle;rounded=0;orthogonalLoop=1;jettySize=auto;html=1;entryX=0.5;entryY=0;entryDx=0;entryDy=0;" parent="WIyWlLk6GJQsqaUBKTNV-1" source="quJpcEcycrzPPs2imelZ-10" target="quJpcEcycrzPPs2imelZ-11" edge="1">
                    <mxGeometry relative="1" as="geometry"/>
                </mxCell>
                <mxCell id="quJpcEcycrzPPs2imelZ-14" style="edgeStyle=orthogonalEdgeStyle;rounded=0;orthogonalLoop=1;jettySize=auto;html=1;entryX=0.5;entryY=0;entryDx=0;entryDy=0;" parent="WIyWlLk6GJQsqaUBKTNV-1" source="quJpcEcycrzPPs2imelZ-10" target="quJpcEcycrzPPs2imelZ-12" edge="1">
                    <mxGeometry relative="1" as="geometry"/>
                </mxCell>
                <mxCell id="quJpcEcycrzPPs2imelZ-84" style="edgeStyle=orthogonalEdgeStyle;rounded=0;orthogonalLoop=1;jettySize=auto;html=1;entryX=1;entryY=0.5;entryDx=0;entryDy=0;" parent="WIyWlLk6GJQsqaUBKTNV-1" source="quJpcEcycrzPPs2imelZ-10" target="quJpcEcycrzPPs2imelZ-16" edge="1">
                    <mxGeometry relative="1" as="geometry"/>
                </mxCell>
                <mxCell id="quJpcEcycrzPPs2imelZ-85" style="edgeStyle=orthogonalEdgeStyle;rounded=0;orthogonalLoop=1;jettySize=auto;html=1;" parent="WIyWlLk6GJQsqaUBKTNV-1" source="quJpcEcycrzPPs2imelZ-10" target="quJpcEcycrzPPs2imelZ-29" edge="1">
                    <mxGeometry relative="1" as="geometry"/>
                </mxCell>
                <mxCell id="quJpcEcycrzPPs2imelZ-10" value="Categorias" style="rhombus;whiteSpace=wrap;html=1;fillColor=#fff2cc;strokeColor=#d6b656;fontColor=#000000;" parent="WIyWlLk6GJQsqaUBKTNV-1" vertex="1">
                    <mxGeometry x="352" y="220" width="120" height="60" as="geometry"/>
                </mxCell>
                <mxCell id="quJpcEcycrzPPs2imelZ-11" value="idCateg" style="ellipse;whiteSpace=wrap;html=1;fillColor=#d5e8d4;strokeColor=#82b366;fontColor=#000000;" parent="WIyWlLk6GJQsqaUBKTNV-1" vertex="1">
                    <mxGeometry x="338" y="330" width="70" height="40" as="geometry"/>
                </mxCell>
                <mxCell id="quJpcEcycrzPPs2imelZ-12" value="Nome" style="ellipse;whiteSpace=wrap;html=1;" parent="WIyWlLk6GJQsqaUBKTNV-1" vertex="1">
                    <mxGeometry x="418" y="330" width="70" height="40" as="geometry"/>
                </mxCell>
                <mxCell id="quJpcEcycrzPPs2imelZ-22" style="edgeStyle=orthogonalEdgeStyle;rounded=0;orthogonalLoop=1;jettySize=auto;html=1;" parent="WIyWlLk6GJQsqaUBKTNV-1" source="quJpcEcycrzPPs2imelZ-16" target="quJpcEcycrzPPs2imelZ-20" edge="1">
                    <mxGeometry relative="1" as="geometry"/>
                </mxCell>
                <mxCell id="quJpcEcycrzPPs2imelZ-23" style="edgeStyle=orthogonalEdgeStyle;rounded=0;orthogonalLoop=1;jettySize=auto;html=1;entryX=1;entryY=0.5;entryDx=0;entryDy=0;" parent="WIyWlLk6GJQsqaUBKTNV-1" source="quJpcEcycrzPPs2imelZ-16" target="quJpcEcycrzPPs2imelZ-17" edge="1">
                    <mxGeometry relative="1" as="geometry"/>
                </mxCell>
                <mxCell id="quJpcEcycrzPPs2imelZ-25" style="edgeStyle=orthogonalEdgeStyle;rounded=0;orthogonalLoop=1;jettySize=auto;html=1;entryX=1;entryY=0.5;entryDx=0;entryDy=0;" parent="WIyWlLk6GJQsqaUBKTNV-1" source="quJpcEcycrzPPs2imelZ-16" target="quJpcEcycrzPPs2imelZ-19" edge="1">
                    <mxGeometry relative="1" as="geometry"/>
                </mxCell>
                <mxCell id="quJpcEcycrzPPs2imelZ-89" style="edgeStyle=orthogonalEdgeStyle;rounded=0;orthogonalLoop=1;jettySize=auto;html=1;entryX=0;entryY=0.5;entryDx=0;entryDy=0;" parent="WIyWlLk6GJQsqaUBKTNV-1" source="quJpcEcycrzPPs2imelZ-16" target="quJpcEcycrzPPs2imelZ-38" edge="1">
                    <mxGeometry relative="1" as="geometry">
                        <Array as="points">
                            <mxPoint x="260" y="460"/>
                        </Array>
                    </mxGeometry>
                </mxCell>
                <mxCell id="quJpcEcycrzPPs2imelZ-16" value="SubCateg&lt;br&gt;Artesanato" style="rhombus;whiteSpace=wrap;html=1;fillColor=#fff2cc;strokeColor=#d6b656;fontColor=#000000;" parent="WIyWlLk6GJQsqaUBKTNV-1" vertex="1">
                    <mxGeometry x="140" y="220" width="120" height="60" as="geometry"/>
                </mxCell>
                <mxCell id="quJpcEcycrzPPs2imelZ-17" value="idCatArtes" style="ellipse;whiteSpace=wrap;html=1;fillColor=#d5e8d4;strokeColor=#82b366;fontColor=#000000;" parent="WIyWlLk6GJQsqaUBKTNV-1" vertex="1">
                    <mxGeometry x="20" y="180" width="70" height="40" as="geometry"/>
                </mxCell>
                <mxCell id="quJpcEcycrzPPs2imelZ-19" value="Nome" style="ellipse;whiteSpace=wrap;html=1;" parent="WIyWlLk6GJQsqaUBKTNV-1" vertex="1">
                    <mxGeometry x="20" y="290" width="70" height="40" as="geometry"/>
                </mxCell>
                <mxCell id="quJpcEcycrzPPs2imelZ-20" value="idCateg" style="ellipse;whiteSpace=wrap;html=1;fillColor=#f8cecc;strokeColor=#b85450;fontColor=#000000;" parent="WIyWlLk6GJQsqaUBKTNV-1" vertex="1">
                    <mxGeometry x="20" y="230" width="70" height="40" as="geometry"/>
                </mxCell>
                <mxCell id="quJpcEcycrzPPs2imelZ-26" style="edgeStyle=orthogonalEdgeStyle;rounded=0;orthogonalLoop=1;jettySize=auto;html=1;" parent="WIyWlLk6GJQsqaUBKTNV-1" source="quJpcEcycrzPPs2imelZ-29" target="quJpcEcycrzPPs2imelZ-32" edge="1">
                    <mxGeometry relative="1" as="geometry"/>
                </mxCell>
                <mxCell id="quJpcEcycrzPPs2imelZ-34" style="edgeStyle=orthogonalEdgeStyle;rounded=0;orthogonalLoop=1;jettySize=auto;html=1;entryX=0;entryY=0.5;entryDx=0;entryDy=0;" parent="WIyWlLk6GJQsqaUBKTNV-1" source="quJpcEcycrzPPs2imelZ-29" target="quJpcEcycrzPPs2imelZ-30" edge="1">
                    <mxGeometry relative="1" as="geometry"/>
                </mxCell>
                <mxCell id="quJpcEcycrzPPs2imelZ-35" style="edgeStyle=orthogonalEdgeStyle;rounded=0;orthogonalLoop=1;jettySize=auto;html=1;entryX=0;entryY=0.5;entryDx=0;entryDy=0;" parent="WIyWlLk6GJQsqaUBKTNV-1" source="quJpcEcycrzPPs2imelZ-29" target="quJpcEcycrzPPs2imelZ-31" edge="1">
                    <mxGeometry relative="1" as="geometry"/>
                </mxCell>
                <mxCell id="quJpcEcycrzPPs2imelZ-74" style="edgeStyle=orthogonalEdgeStyle;rounded=0;orthogonalLoop=1;jettySize=auto;html=1;entryX=0.5;entryY=0;entryDx=0;entryDy=0;" parent="WIyWlLk6GJQsqaUBKTNV-1" source="quJpcEcycrzPPs2imelZ-29" target="quJpcEcycrzPPs2imelZ-38" edge="1">
                    <mxGeometry relative="1" as="geometry"/>
                </mxCell>
                <mxCell id="quJpcEcycrzPPs2imelZ-29" value="SubCateg&lt;br&gt;Produto" style="rhombus;whiteSpace=wrap;html=1;fillColor=#fff2cc;strokeColor=#d6b656;fontColor=#000000;" parent="WIyWlLk6GJQsqaUBKTNV-1" vertex="1">
                    <mxGeometry x="560" y="220" width="120" height="60" as="geometry"/>
                </mxCell>
                <mxCell id="quJpcEcycrzPPs2imelZ-30" value="idCatProd" style="ellipse;whiteSpace=wrap;html=1;fillColor=#d5e8d4;strokeColor=#82b366;fontColor=#000000;" parent="WIyWlLk6GJQsqaUBKTNV-1" vertex="1">
                    <mxGeometry x="717" y="180" width="70" height="40" as="geometry"/>
                </mxCell>
                <mxCell id="quJpcEcycrzPPs2imelZ-31" value="Nome" style="ellipse;whiteSpace=wrap;html=1;" parent="WIyWlLk6GJQsqaUBKTNV-1" vertex="1">
                    <mxGeometry x="717" y="280" width="70" height="40" as="geometry"/>
                </mxCell>
                <mxCell id="quJpcEcycrzPPs2imelZ-32" value="idCateg" style="ellipse;whiteSpace=wrap;html=1;fillColor=#f8cecc;strokeColor=#b85450;fontColor=#000000;" parent="WIyWlLk6GJQsqaUBKTNV-1" vertex="1">
                    <mxGeometry x="717" y="230" width="70" height="40" as="geometry"/>
                </mxCell>
                <mxCell id="quJpcEcycrzPPs2imelZ-45" style="edgeStyle=orthogonalEdgeStyle;rounded=0;orthogonalLoop=1;jettySize=auto;html=1;entryX=0;entryY=0.5;entryDx=0;entryDy=0;" parent="WIyWlLk6GJQsqaUBKTNV-1" source="quJpcEcycrzPPs2imelZ-38" target="quJpcEcycrzPPs2imelZ-43" edge="1">
                    <mxGeometry relative="1" as="geometry"/>
                </mxCell>
                <mxCell id="quJpcEcycrzPPs2imelZ-46" style="edgeStyle=orthogonalEdgeStyle;rounded=0;orthogonalLoop=1;jettySize=auto;html=1;entryX=0;entryY=0.5;entryDx=0;entryDy=0;" parent="WIyWlLk6GJQsqaUBKTNV-1" source="quJpcEcycrzPPs2imelZ-38" target="quJpcEcycrzPPs2imelZ-41" edge="1">
                    <mxGeometry relative="1" as="geometry"/>
                </mxCell>
                <mxCell id="quJpcEcycrzPPs2imelZ-52" style="edgeStyle=orthogonalEdgeStyle;rounded=0;orthogonalLoop=1;jettySize=auto;html=1;entryX=0;entryY=0.5;entryDx=0;entryDy=0;" parent="WIyWlLk6GJQsqaUBKTNV-1" source="quJpcEcycrzPPs2imelZ-38" target="quJpcEcycrzPPs2imelZ-40" edge="1">
                    <mxGeometry relative="1" as="geometry"/>
                </mxCell>
                <mxCell id="quJpcEcycrzPPs2imelZ-55" style="edgeStyle=orthogonalEdgeStyle;rounded=0;orthogonalLoop=1;jettySize=auto;html=1;entryX=0.5;entryY=0;entryDx=0;entryDy=0;" parent="WIyWlLk6GJQsqaUBKTNV-1" source="quJpcEcycrzPPs2imelZ-38" target="quJpcEcycrzPPs2imelZ-47" edge="1">
                    <mxGeometry relative="1" as="geometry">
                        <mxPoint x="705" y="610" as="targetPoint"/>
                        <Array as="points">
                            <mxPoint x="705" y="460"/>
                            <mxPoint x="705" y="600"/>
                            <mxPoint x="725" y="600"/>
                        </Array>
                    </mxGeometry>
                </mxCell>
                <mxCell id="quJpcEcycrzPPs2imelZ-56" style="edgeStyle=orthogonalEdgeStyle;rounded=0;orthogonalLoop=1;jettySize=auto;html=1;entryX=0.5;entryY=0;entryDx=0;entryDy=0;" parent="WIyWlLk6GJQsqaUBKTNV-1" source="quJpcEcycrzPPs2imelZ-38" target="quJpcEcycrzPPs2imelZ-48" edge="1">
                    <mxGeometry relative="1" as="geometry">
                        <Array as="points">
                            <mxPoint x="620" y="590"/>
                            <mxPoint x="565" y="590"/>
                        </Array>
                    </mxGeometry>
                </mxCell>
                <mxCell id="quJpcEcycrzPPs2imelZ-57" style="edgeStyle=orthogonalEdgeStyle;rounded=0;orthogonalLoop=1;jettySize=auto;html=1;entryX=0.5;entryY=0;entryDx=0;entryDy=0;" parent="WIyWlLk6GJQsqaUBKTNV-1" source="quJpcEcycrzPPs2imelZ-38" target="quJpcEcycrzPPs2imelZ-49" edge="1">
                    <mxGeometry relative="1" as="geometry">
                        <Array as="points">
                            <mxPoint x="620" y="590"/>
                            <mxPoint x="494" y="590"/>
                        </Array>
                    </mxGeometry>
                </mxCell>
                <mxCell id="quJpcEcycrzPPs2imelZ-58" style="edgeStyle=orthogonalEdgeStyle;rounded=0;orthogonalLoop=1;jettySize=auto;html=1;entryX=1;entryY=0.5;entryDx=0;entryDy=0;" parent="WIyWlLk6GJQsqaUBKTNV-1" source="quJpcEcycrzPPs2imelZ-38" target="quJpcEcycrzPPs2imelZ-51" edge="1">
                    <mxGeometry relative="1" as="geometry">
                        <Array as="points">
                            <mxPoint x="620" y="500"/>
                        </Array>
                    </mxGeometry>
                </mxCell>
                <mxCell id="quJpcEcycrzPPs2imelZ-92" style="edgeStyle=orthogonalEdgeStyle;rounded=0;orthogonalLoop=1;jettySize=auto;html=1;entryX=0;entryY=0.5;entryDx=0;entryDy=0;" parent="WIyWlLk6GJQsqaUBKTNV-1" source="quJpcEcycrzPPs2imelZ-38" target="quJpcEcycrzPPs2imelZ-91" edge="1">
                    <mxGeometry relative="1" as="geometry"/>
                </mxCell>
                <mxCell id="quJpcEcycrzPPs2imelZ-97" style="edgeStyle=orthogonalEdgeStyle;rounded=0;orthogonalLoop=1;jettySize=auto;html=1;entryX=1;entryY=0.5;entryDx=0;entryDy=0;" parent="WIyWlLk6GJQsqaUBKTNV-1" source="quJpcEcycrzPPs2imelZ-38" target="quJpcEcycrzPPs2imelZ-96" edge="1">
                    <mxGeometry relative="1" as="geometry">
                        <Array as="points">
                            <mxPoint x="620" y="550"/>
                        </Array>
                    </mxGeometry>
                </mxCell>
                <mxCell id="quJpcEcycrzPPs2imelZ-99" style="edgeStyle=orthogonalEdgeStyle;rounded=0;orthogonalLoop=1;jettySize=auto;html=1;exitX=0.5;exitY=1;exitDx=0;exitDy=0;entryX=0.5;entryY=0;entryDx=0;entryDy=0;" parent="WIyWlLk6GJQsqaUBKTNV-1" source="quJpcEcycrzPPs2imelZ-38" target="quJpcEcycrzPPs2imelZ-98" edge="1">
                    <mxGeometry relative="1" as="geometry">
                        <Array as="points">
                            <mxPoint x="620" y="590"/>
                            <mxPoint x="645" y="590"/>
                        </Array>
                    </mxGeometry>
                </mxCell>
                <mxCell id="quJpcEcycrzPPs2imelZ-38" value="Item" style="rhombus;whiteSpace=wrap;html=1;fillColor=#fff2cc;strokeColor=#d6b656;fontColor=#000000;" parent="WIyWlLk6GJQsqaUBKTNV-1" vertex="1">
                    <mxGeometry x="560" y="430" width="120" height="60" as="geometry"/>
                </mxCell>
                <mxCell id="quJpcEcycrzPPs2imelZ-40" value="Nome" style="ellipse;whiteSpace=wrap;html=1;" parent="WIyWlLk6GJQsqaUBKTNV-1" vertex="1">
                    <mxGeometry x="730" y="560" width="70" height="40" as="geometry"/>
                </mxCell>
                <mxCell id="quJpcEcycrzPPs2imelZ-41" value="idProd" style="ellipse;whiteSpace=wrap;html=1;fillColor=#d5e8d4;strokeColor=#82b366;fontColor=#000000;" parent="WIyWlLk6GJQsqaUBKTNV-1" vertex="1">
                    <mxGeometry x="730" y="380" width="70" height="40" as="geometry"/>
                </mxCell>
                <mxCell id="quJpcEcycrzPPs2imelZ-43" value="idCatProd" style="ellipse;whiteSpace=wrap;html=1;fillColor=#f8cecc;strokeColor=#b85450;fontColor=#000000;" parent="WIyWlLk6GJQsqaUBKTNV-1" vertex="1">
                    <mxGeometry x="730" y="440" width="70" height="40" as="geometry"/>
                </mxCell>
                <mxCell id="quJpcEcycrzPPs2imelZ-47" value="Descrição" style="ellipse;whiteSpace=wrap;html=1;" parent="WIyWlLk6GJQsqaUBKTNV-1" vertex="1">
                    <mxGeometry x="690" y="620" width="70" height="40" as="geometry"/>
                </mxCell>
                <mxCell id="quJpcEcycrzPPs2imelZ-48" value="Custo" style="ellipse;whiteSpace=wrap;html=1;" parent="WIyWlLk6GJQsqaUBKTNV-1" vertex="1">
                    <mxGeometry x="530" y="620" width="70" height="40" as="geometry"/>
                </mxCell>
                <mxCell id="quJpcEcycrzPPs2imelZ-49" value="Venda" style="ellipse;whiteSpace=wrap;html=1;" parent="WIyWlLk6GJQsqaUBKTNV-1" vertex="1">
                    <mxGeometry x="459" y="620" width="70" height="40" as="geometry"/>
                </mxCell>
                <mxCell id="quJpcEcycrzPPs2imelZ-51" value="Data&lt;br&gt;Cadastro" style="ellipse;whiteSpace=wrap;html=1;" parent="WIyWlLk6GJQsqaUBKTNV-1" vertex="1">
                    <mxGeometry x="440" y="480" width="70" height="40" as="geometry"/>
                </mxCell>
                <mxCell id="quJpcEcycrzPPs2imelZ-86" value="Cargo" style="ellipse;whiteSpace=wrap;html=1;" parent="WIyWlLk6GJQsqaUBKTNV-1" vertex="1">
                    <mxGeometry x="550" y="90" width="70" height="40" as="geometry"/>
                </mxCell>
                <mxCell id="quJpcEcycrzPPs2imelZ-91" value="idCatArtes" style="ellipse;whiteSpace=wrap;html=1;fillColor=#f8cecc;strokeColor=#b85450;fontColor=#000000;" parent="WIyWlLk6GJQsqaUBKTNV-1" vertex="1">
                    <mxGeometry x="730" y="500" width="70" height="40" as="geometry"/>
                </mxCell>
                <mxCell id="quJpcEcycrzPPs2imelZ-96" value="Quantidade" style="ellipse;whiteSpace=wrap;html=1;" parent="WIyWlLk6GJQsqaUBKTNV-1" vertex="1">
                    <mxGeometry x="440" y="530" width="70" height="40" as="geometry"/>
                </mxCell>
                <mxCell id="quJpcEcycrzPPs2imelZ-98" value="Fotos" style="ellipse;whiteSpace=wrap;html=1;" parent="WIyWlLk6GJQsqaUBKTNV-1" vertex="1">
                    <mxGeometry x="610" y="620" width="70" height="40" as="geometry"/>
                </mxCell>
            </root>
        </mxGraphModel>
    </diagram>
</mxfile>